<svg xmlns="http://www.w3.org/2000/svg" width="194" height="40" viewBox="0 0 194 40" fill="none">
  <g clip-path="url(#clip0_441_988)">
    <path d="M30.888 39.2534V10.2833H36.0423V12.7955C36.826 11.8638 37.8263 11.1101 39.0369 10.5377C40.2474 9.96529 41.6841 9.6759 43.3502 9.6759C45.3253 9.6759 47.0838 10.1306 48.6257 11.0433C50.1675 11.956 51.3781 13.228 52.2573 14.8625C53.1366 16.4971 53.5762 18.3829 53.5762 20.5167C53.5762 22.0431 53.3245 23.4614 52.8148 24.7715C52.3083 26.0817 51.5947 27.2297 50.6741 28.2155C49.7534 29.2013 48.6639 29.9709 47.4056 30.5242C46.1472 31.0776 44.7615 31.3542 43.2451 31.3542C41.9039 31.3542 40.6966 31.1316 39.623 30.6864C38.5463 30.2412 37.6033 29.6116 36.791 28.8038V39.2566H30.8848L30.888 39.2534ZM42.2544 26.228C43.3088 26.228 44.255 25.9959 45.0864 25.5284C45.9179 25.0609 46.5677 24.4027 47.036 23.5536C47.5011 22.7013 47.7369 21.6901 47.7369 20.5135C47.7369 19.3369 47.5011 18.3256 47.0265 17.4734C46.5518 16.6211 45.9019 15.9628 45.0769 15.4986C44.2518 15.0311 43.312 14.7989 42.2544 14.7989C41.1967 14.7989 40.2793 15.0311 39.4542 15.4986C38.6291 15.9628 37.9792 16.6243 37.5046 17.4734C37.0299 18.3256 36.7942 19.3369 36.7942 20.5135C36.7942 21.6901 37.0267 22.7013 37.495 23.5536C37.9633 24.4058 38.6068 25.0641 39.4351 25.5284C40.2601 25.9927 41.1999 26.228 42.2576 26.228H42.2544Z" fill="#111111"/>
    <path d="M67.5008 31.3511C65.2963 31.3511 63.3403 30.8581 61.636 29.8723C59.9317 28.8865 58.5937 27.5732 57.6284 25.9323C56.66 24.2914 56.1758 22.4851 56.1758 20.5135C56.1758 19.0697 56.4529 17.6928 57.0072 16.3921C57.5615 15.0883 58.3484 13.934 59.3614 12.9291C60.3777 11.9242 61.5723 11.1292 62.9549 10.5472C64.3374 9.96529 65.8506 9.6759 67.5008 9.6759C69.7053 9.6759 71.6581 10.1688 73.356 11.1546C75.054 12.1404 76.3856 13.4538 77.354 15.0947C78.3225 16.7356 78.8035 18.5419 78.8035 20.5135C78.8035 21.9445 78.5263 23.3151 77.972 24.6253C77.4177 25.9354 76.6341 27.093 75.6274 28.1011C74.6207 29.1091 73.4261 29.901 72.0467 30.4829C70.6673 31.0648 69.151 31.3542 67.5008 31.3542V31.3511ZM67.5008 26.228C68.5425 26.228 69.4759 25.9959 70.301 25.5284C71.1261 25.0609 71.7759 24.3995 72.2506 23.5441C72.7253 22.6854 72.961 21.6774 72.961 20.5167C72.961 19.3559 72.7284 18.3288 72.2602 17.4765C71.795 16.6243 71.1484 15.966 70.3233 15.5017C69.4982 15.0343 68.5584 14.8021 67.5008 14.8021C66.4431 14.8021 65.5002 15.0343 64.6687 15.5017C63.8373 15.966 63.1874 16.6275 62.7191 17.4765C62.2508 18.3256 62.0183 19.34 62.0183 20.5167C62.0183 21.6933 62.254 22.7045 62.7287 23.5568C63.2033 24.409 63.8532 25.0673 64.6783 25.5316C65.5034 25.9959 66.4431 26.2312 67.5008 26.2312V26.228Z" fill="#111111"/>
    <path d="M90.313 31.3319C88.4876 31.3319 86.8024 31.0934 85.2574 30.6133C83.7123 30.1331 82.3966 29.4748 81.3008 28.6384L83.2281 24.5044C84.2985 25.2326 85.4549 25.805 86.6973 26.2153C87.9429 26.6287 89.1407 26.8322 90.2907 26.8322C91.4407 26.8322 92.304 26.6605 92.9189 26.317C93.5337 25.9736 93.8427 25.4775 93.8427 24.8288C93.8427 24.2468 93.5687 23.8207 93.0208 23.5408C92.4729 23.2642 91.4152 22.9621 89.8447 22.6409C87.1401 22.1543 85.1618 21.388 83.9194 20.3417C82.6738 19.2955 82.0526 17.8518 82.0526 16.0169C82.0526 14.7194 82.4158 13.5778 83.1389 12.592C83.862 11.6062 84.8623 10.8398 86.1334 10.2928C87.4045 9.74583 88.8667 9.47235 90.5169 9.47235C92.1671 9.47235 93.6739 9.69177 95.1138 10.1306C96.5537 10.5695 97.7897 11.18 98.8187 11.9655L96.9519 16.1186C96.4103 15.6861 95.7923 15.3077 95.0947 14.9834C94.397 14.659 93.6675 14.4046 92.9029 14.2233C92.1384 14.0421 91.3897 13.9498 90.6602 13.9498C89.6727 13.9498 88.8731 14.1152 88.2646 14.4459C87.6562 14.7767 87.3503 15.2409 87.3503 15.8324C87.3503 16.4239 87.6275 16.8659 88.1818 17.149C88.7361 17.432 89.7714 17.7436 91.2878 18.0807C94.1167 18.6754 96.13 19.4609 97.3278 20.4403C98.5256 21.4198 99.1245 22.7935 99.1245 24.5616C99.1245 25.9259 98.755 27.1152 98.0191 28.1265C97.28 29.1409 96.2542 29.9264 94.9322 30.4861C93.6133 31.0457 92.0747 31.3256 90.3162 31.3256L90.313 31.3319Z" fill="#111111"/>
    <path d="M110.73 31.3319C108.904 31.3319 107.219 31.0934 105.677 30.6133C104.135 30.1331 102.817 29.4748 101.721 28.6384L103.648 24.5044C104.715 25.2326 105.875 25.805 107.117 26.2153C108.363 26.6287 109.561 26.8322 110.711 26.8322C111.861 26.8322 112.724 26.6605 113.339 26.317C113.954 25.9736 114.263 25.4775 114.263 24.8288C114.263 24.2468 113.989 23.8207 113.441 23.5408C112.893 23.2642 111.835 22.9621 110.265 22.6409C107.557 22.1543 105.582 21.388 104.339 20.3417C103.094 19.2955 102.473 17.8518 102.473 16.0169C102.473 14.7194 102.832 13.5778 103.559 12.592C104.282 11.6062 105.279 10.8398 106.553 10.2928C107.828 9.74583 109.287 9.47235 110.937 9.47235C112.587 9.47235 114.094 9.69177 115.534 10.1306C116.974 10.5695 118.21 11.18 119.239 11.9655L117.372 16.1186C116.83 15.6861 116.212 15.3077 115.515 14.9834C114.817 14.659 114.087 14.4046 113.323 14.2233C112.558 14.0421 111.81 13.9498 111.08 13.9498C110.093 13.9498 109.293 14.1152 108.685 14.4459C108.076 14.7767 107.77 15.2409 107.77 15.8324C107.77 16.4239 108.047 16.8659 108.602 17.149C109.156 17.432 110.191 17.7436 111.708 18.0807C114.537 18.6754 116.55 19.4609 117.745 20.4403C118.942 21.4198 119.541 22.7935 119.541 24.5616C119.541 25.9259 119.172 27.1152 118.436 28.1265C117.7 29.1377 116.671 29.9264 115.352 30.4861C114.033 31.0457 112.495 31.3256 110.736 31.3256L110.73 31.3319Z" fill="#111111"/>
    <path d="M127.085 7.03962C126.097 7.03962 125.244 6.73116 124.527 6.11741C123.81 5.50366 123.45 4.68321 123.45 3.65606C123.45 2.62891 123.807 1.78938 124.527 1.17563C125.244 0.561882 126.097 0.253418 127.085 0.253418C128.073 0.253418 128.926 0.561882 129.643 1.17563C130.36 1.78938 130.72 2.61937 130.72 3.65606C130.72 4.69275 130.363 5.50366 129.643 6.11741C128.923 6.73116 128.073 7.03962 127.085 7.03962ZM124.122 30.7436V10.2833H130.048V30.7468H124.122V30.7436Z" fill="#111111"/>
    <path d="M148.277 31.351C146.977 31.351 145.795 31.157 144.725 30.7722C143.654 30.3875 142.731 29.85 141.953 29.16C141.176 28.4699 140.577 27.6749 140.157 26.7686L140.969 25.452V30.7404H135.814V1.56995H141.721V14.942L140.402 13.5841C141.335 12.328 142.447 11.3613 143.74 10.6871C145.031 10.013 146.512 9.67269 148.175 9.67269C150.204 9.67269 151.994 10.1529 153.543 11.1101C155.091 12.0704 156.305 13.3679 157.187 15.0088C158.066 16.6497 158.506 18.4846 158.506 20.5103C158.506 22.1035 158.254 23.5663 157.745 24.8955C157.238 26.2248 156.524 27.3696 155.604 28.33C154.683 29.2903 153.603 30.0313 152.367 30.5592C151.131 31.0871 149.764 31.3478 148.277 31.3478V31.351ZM147.181 26.228C148.235 26.228 149.175 25.9958 150.003 25.5284C150.828 25.0609 151.478 24.4026 151.953 23.5536C152.428 22.7045 152.663 21.6901 152.663 20.5134C152.663 19.3368 152.431 18.3256 151.963 17.4733C151.494 16.6211 150.848 15.9628 150.013 15.4985C149.181 15.0311 148.239 14.7989 147.181 14.7989C146.123 14.7989 145.183 15.0311 144.358 15.4985C143.533 15.9628 142.887 16.6243 142.418 17.4733C141.953 18.3256 141.717 19.3368 141.717 20.5134C141.717 21.6901 141.953 22.7013 142.428 23.5536C142.903 24.4058 143.552 25.0641 144.377 25.5284C145.203 25.9926 146.136 26.228 147.178 26.228H147.181Z" fill="#111111"/>
    <path d="M162.583 30.7436V1.56995H168.508V30.7436H162.583Z" fill="#111111"/>
    <path d="M183.853 31.351C181.62 31.351 179.658 30.8994 177.966 29.9931C176.275 29.09 174.956 27.8243 174.01 26.2057C173.064 24.5839 172.589 22.6886 172.589 20.5134C172.589 18.9329 172.863 17.4828 173.411 16.1568C173.959 14.8339 174.73 13.6891 175.724 12.7223C176.717 11.7556 177.887 11.0083 179.234 10.474C180.578 9.93979 182.06 9.67267 183.669 9.67267C185.44 9.67267 187.014 9.98431 188.387 10.6044C189.76 11.2245 190.9 12.0927 191.808 13.2089C192.713 14.3219 193.347 15.6289 193.707 17.1299C194.063 18.6277 194.095 20.2558 193.799 22.0112H178.09C178.09 22.9557 178.336 23.7793 178.83 24.4821C179.323 25.1849 180.021 25.735 180.919 26.1325C181.818 26.5301 182.872 26.7304 184.076 26.7304C185.281 26.7304 186.405 26.5682 187.488 26.2439C188.571 25.9195 189.591 25.4266 190.553 24.7651L192.522 28.8165C191.872 29.3158 191.059 29.7578 190.088 30.1426C189.113 30.5274 188.081 30.8231 186.991 31.033C185.902 31.2429 184.857 31.3478 183.857 31.3478L183.853 31.351ZM178.435 17.9408H188.116C188.074 16.7387 187.651 15.7879 186.848 15.0851C186.042 14.3823 184.936 14.0325 183.528 14.0325C182.12 14.0325 180.954 14.3823 180.027 15.0851C179.1 15.7879 178.568 16.7387 178.435 17.9408Z" fill="#111111"/>
    <path d="M7.21869 9.6536H0V2.95007H3.83234C4.76574 2.95007 5.60994 3.32532 6.22158 3.93589C6.83641 4.54645 7.21869 5.39552 7.21869 6.33046V9.65041V9.6536Z" fill="#111111"/>
    <path d="M13.5231 9.63771C13.5231 9.63771 9.61112 9.41193 6.25025 12.4679C4.75618 13.829 0 18.5291 0 18.5291V28.0978L6.68669 20.717C7.89405 19.3209 10.2005 16.1282 13.5263 16.1282C16.1035 16.1282 18.1901 18.2111 18.1901 20.7838C18.1901 23.3564 16.1035 25.4393 13.5263 25.4393C10.5031 25.4393 8.14572 23.3373 7.19958 22.5773C7.19958 22.5773 7.03711 31.3955 14.9598 31.3955C20.6813 31.3955 24.7143 26.4697 24.7143 20.8187C24.7143 14.6431 19.7128 9.63771 13.5263 9.63771H13.5231Z" fill="#111111"/>
  </g>
  <defs>
    <clipPath id="clip0_441_988">
      <rect width="194" height="39" fill="white" transform="translate(0 0.253418)"/>
    </clipPath>
  </defs>
</svg>